<?xml version="1.0" encoding="utf-8"?>
<!-- Generator: Adobe Illustrator 21.0.2, SVG Export Plug-In . SVG Version: 6.00 Build 0)  -->
<svg version="1.1" xmlns="http://www.w3.org/2000/svg" xmlns:xlink="http://www.w3.org/1999/xlink" x="0px" y="0px"
	 viewBox="0 0 108 108" style="enable-background:new 0 0 108 108;" xml:space="preserve">
<style type="text/css">
	.st0{fill:#572000;stroke:#000000;stroke-miterlimit:10;}
	.st1{stroke:#000000;stroke-miterlimit:10;}
	.st2{fill:none;stroke:#000000;stroke-miterlimit:10;}
	.st3{fill:#AD2850;stroke:#AD2850;stroke-miterlimit:10;}
	.st4{fill:#6C3D3D;}
	.st5{stroke:#000000;stroke-width:0.25;stroke-miterlimit:10;}
</style>
<g id="Layer_1">
	<ellipse class="st0" cx="54.5" cy="62.4" rx="36.7" ry="34.7"/>
	<circle class="st1" cx="39.6" cy="64" r="3.8"/>
	<circle class="st1" cx="68.6" cy="64" r="3.8"/>
	<path class="st2" d="M59.2,76.8c0,0-5.3,0-5.5-2s1-4.2,1-4.2"/>
	<path class="st3" d="M37.9,79.4c0,0-0.3,3.7,6.5,6.9s13.1,0.8,13.1,0.8l-19.6-8.4L37.9,79.4z"/>
	<ellipse class="st4" cx="32.5" cy="73.8" rx="3.6" ry="3.3"/>
	<ellipse class="st4" cx="70.6" cy="80.3" rx="3.6" ry="3.3"/>
	<path class="st5" d="M18.4,69.5c0,0,2.3-20,17.4-24.9c10.4-3.3,23.5-5.4,37.5-0.4S90,64.9,90.7,68.8c0.7,3.9,6.7-13,4.9-22.9
		s-8.1-35.4-44.1-35s-41,29.1-41,34.6c-0.1,6.5-1.2,18.4,8,24.6"/>
</g>
<g id="Layer_2">
</g>
</svg>
