<?xml version="1.0" encoding="utf-8"?>
<!-- Generator: Adobe Illustrator 21.0.2, SVG Export Plug-In . SVG Version: 6.00 Build 0)  -->
<svg version="1.1" xmlns="http://www.w3.org/2000/svg" xmlns:xlink="http://www.w3.org/1999/xlink" x="0px" y="0px"
	 viewBox="0 0 108 108" style="enable-background:new 0 0 108 108;" xml:space="preserve">
<style type="text/css">
	.st0{fill:#ECC19C;stroke:#B5917C;stroke-miterlimit:10;}
	.st1{fill:#2B3990;stroke:#2B3990;stroke-miterlimit:10;}
	.st2{fill:none;stroke:#9C7761;stroke-miterlimit:10;}
	.st3{fill:#B8446A;stroke:#B8446A;stroke-miterlimit:10;}
	.st4{fill:#D39090;}
	.st5{fill:#F7941D;stroke:#F15A29;stroke-miterlimit:10;}
</style>
<g id="Layer_1">
	<ellipse class="st0" cx="53.5" cy="54.1" rx="36.7" ry="34.7"/>
	<circle class="st1" cx="38.6" cy="55.6" r="3.8"/>
	<circle class="st1" cx="67.6" cy="55.6" r="3.8"/>
	<path class="st2" d="M58.1,68.4c0,0-5.3,0-5.5-2s1-4.2,1-4.2"/>
	<path class="st3" d="M36.9,71.1c0,0-0.3,3.7,6.5,6.9s13.1,0.8,13.1,0.8l-19.6-8.4L36.9,71.1z"/>
	<ellipse class="st4" cx="31.5" cy="65.5" rx="3.6" ry="3.3"/>
	<ellipse class="st4" cx="69.6" cy="72" rx="3.6" ry="3.3"/>
	<path class="st5" d="M38.6,37.1c0,0,2.8,8.1,6.8,8.6c0,0-1.5-3.4-0.6-5.3c0.4-0.8,3.7,4.6,7.9,5.5c0.6,0.1-3.7-3.8-2.5-5.5
		c0.4-0.5,9.3,5.2,15,5.4c0.7,0-0.1-3.7-1.4-5.3c-0.5-0.6,9.4-0.9,16,9.2c4.1,6.2,9.5,11.6,9.5,11.6s1.8-2.8,2.3-8.2
		c0.8-7.8-0.5-12-3-17.3c-2.3-4.9-8-18.8-33.3-19S19.5,33.1,17.8,36.6c-1.7,3.5-6,8.6-3.2,19.5c1.6,6.3,3.6,6.7,3.6,6.7
		c0.3-3.5,0.9-8,3.6-11c2.7-3,9.1-4.2,11.3-7C34.9,42.6,38.6,37.1,38.6,37.1z"/>
</g>
<g id="Layer_2">
</g>
</svg>
