<?xml version="1.0" encoding="utf-8"?>
<!-- Generator: Adobe Illustrator 21.0.2, SVG Export Plug-In . SVG Version: 6.00 Build 0)  -->
<svg version="1.1" xmlns="http://www.w3.org/2000/svg" xmlns:xlink="http://www.w3.org/1999/xlink" x="0px" y="0px"
	 viewBox="0 0 108 108" style="enable-background:new 0 0 108 108;" xml:space="preserve">
<style type="text/css">
	.st0{fill:#B57E54;stroke:#7F5C4C;stroke-miterlimit:10;}
	.st1{stroke:#000000;stroke-miterlimit:10;}
	.st2{fill:none;stroke:#926D5A;stroke-miterlimit:10;}
	.st3{fill:#DB4765;stroke:#DB4665;stroke-miterlimit:10;}
	.st4{fill:#CC7F7F;}
</style>
<g id="Layer_1">
	<ellipse class="st0" cx="53.1" cy="56.1" rx="36.7" ry="34.7"/>
	<circle class="st1" cx="38.3" cy="57.6" r="3.8"/>
	<circle class="st1" cx="67.3" cy="57.6" r="3.8"/>
	<path class="st2" d="M52.3,70.4c0,0,5.3,0,5.5-2c0.2-2-1-4.2-1-4.2"/>
	<path class="st3" d="M36.5,73.1c0,0-0.3,3.7,6.5,6.9s13.1,0.8,13.1,0.8l-19.6-8.4L36.5,73.1z"/>
	<ellipse class="st4" cx="31.1" cy="67.5" rx="3.6" ry="3.3"/>
	<ellipse class="st4" cx="69.2" cy="74" rx="3.6" ry="3.3"/>
	<path class="st1" d="M24.1,51c0,0,2.8-0.4,6.7-0.7c0.3,0,0.2-4.9,0.6-4.9c0.5,0,1.1,4.7,1.3,4.7c1-0.1,2.2-0.2,3.3-0.3
		c0.6,0,0.6-8.1,1.2-8.2c0.6,0,1.8,8,2.5,7.9c4.1-0.3,8.9-0.5,14-0.6c16.6-0.3,28.5,3,28.5,3s2.1,16,0.3,25.2s-2.9,13.7-2.9,13.7
		c3.9,0.7,16.1-0.8,18.3-3.5c3.1-10,1.1-39.4-1.6-45.8c-4-9.2-11.9-23.1-36.6-23.9c-1.4,0-4.5,2.3-5.4,2.5c-0.7,0.2-1-2.5-6.1-2
		C25,20.4,16.1,32.8,12,42.8c-4.5,10.9-3,39.2-2,43.5c0.5,2.1,18.6,4.5,18.6,4.5S20,67.6,24.1,51z"/>
</g>
<g id="Layer_2">
</g>
</svg>
