<?xml version="1.0" encoding="utf-8"?>
<!-- Generator: Adobe Illustrator 21.0.2, SVG Export Plug-In . SVG Version: 6.00 Build 0)  -->
<svg version="1.1" xmlns="http://www.w3.org/2000/svg" xmlns:xlink="http://www.w3.org/1999/xlink" x="0px" y="0px"
	 viewBox="0 0 108 108" style="enable-background:new 0 0 108 108;" xml:space="preserve">
<style type="text/css">
	.st0{fill:#996D4E;stroke:#725143;stroke-miterlimit:10;}
	.st1{fill:#006838;stroke:#006838;stroke-miterlimit:10;}
	.st2{fill:none;stroke:#543E36;stroke-miterlimit:10;}
	.st3{fill:#3C2415;stroke:#3C2415;stroke-miterlimit:10;}
	.st4{fill:#DB4765;stroke:#DB4665;stroke-miterlimit:10;}
	.st5{fill:#B76364;}
	.st6{fill:#B76263;}
</style>
<g id="Layer_1">
	<ellipse class="st0" cx="51.8" cy="55.7" rx="36.7" ry="34.7"/>
	<circle class="st1" cx="37" cy="57.2" r="3.8"/>
	<circle class="st1" cx="66" cy="57.2" r="3.8"/>
	<path class="st2" d="M51,70c0,0,5.3,0,5.5-2s-1-4.2-1-4.2"/>
	<path class="st3" d="M30.3,39.8c0,0,6.8,8.8,14.1,11s19.6,0,19.6,0s12.3-2.4,14.6,3.6c1.1,2.8,0,6.9,0,6.9s5.5-0.7,7.1-2.3
		c1.5-1.7,2.6-2.9,2.6-2.9c-0.1,2.6-0.5,5.8-1.5,9.3c-2.1,7-6.6,12.4-9.4,15.9c4.5,0.2,9.1-1.5,10.9-2.3c4.4-1.9,7-6.6,7-6.7
		c-0.1,0-3.2,6.3-3.2,6.3c3.1-0.1,5.4-5.4,6.9-9.8c5.6-15.9-3.7-39.3-21.3-46.2c-19.2-7.5-32.4-4-37-1.8s-7.6,5-7.6,5
		s-2.3-1-7.8-0.3c-5.5,0.7-14.5,20.3-16.5,28.9S6.3,77,8.6,80.2c2.3,3.2,7.3,5,7.3,5s-2.3-2.5-2.3-4.2c0-1.7,1.8,2.8,5.3,3.3
		s10.7,0.1,10.7,0.1s-7.2-5.4-9.8-11.1c-2.6-5.6-5.3-13.9-4-19.9c1.3-6,7.7-10.2,8.6-10.7C25.7,41.9,30.3,39.8,30.3,39.8z"/>
	<path class="st4" d="M35.3,72.7c0,0-0.3,3.7,6.5,6.9s13.1,0.8,13.1,0.8L35.2,72L35.3,72.7z"/>
	<ellipse class="st5" cx="29.8" cy="67.1" rx="3.6" ry="3.3"/>
	<ellipse class="st6" cx="67.9" cy="73.6" rx="3.6" ry="3.3"/>
</g>
<g id="Layer_2">
</g>
</svg>
