<?xml version="1.0" encoding="utf-8"?>
<!-- Generator: Adobe Illustrator 21.0.2, SVG Export Plug-In . SVG Version: 6.00 Build 0)  -->
<svg version="1.1" xmlns="http://www.w3.org/2000/svg" xmlns:xlink="http://www.w3.org/1999/xlink" x="0px" y="0px"
	 viewBox="0 0 108 108" style="enable-background:new 0 0 108 108;" xml:space="preserve">
<style type="text/css">
	.st0{stroke:#000000;stroke-miterlimit:10;}
	.st1{fill:#7D4E2B;stroke:#6A330D;stroke-miterlimit:10;}
	.st2{fill:#3C2415;stroke:#3C2415;stroke-miterlimit:10;}
	.st3{fill:none;stroke:#6A330D;stroke-miterlimit:10;}
	.st4{fill:#DB4765;stroke:#DB4665;stroke-miterlimit:10;}
	.st5{fill:#914044;}
</style>
<g id="Layer_1">
	<ellipse transform="matrix(0.324 -0.9461 0.9461 0.324 -52.1727 76.2529)" class="st0" cx="27.3" cy="74.6" rx="11.4" ry="15.4"/>
	<ellipse class="st1" cx="54.5" cy="55.3" rx="36.7" ry="34.7"/>
	<circle class="st2" cx="39.6" cy="56.9" r="3.8"/>
	<circle class="st2" cx="68.6" cy="56.9" r="3.8"/>
	<path class="st3" d="M53.7,69.7c0,0,5.3,0,5.5-2c0.2-2-1-9.1-1-9.1"/>
	<path class="st4" d="M37.9,72.3c0,0-0.3,3.7,6.5,6.9s13.1,0.8,13.1,0.8l-19.6-8.4L37.9,72.3z"/>
	<ellipse class="st5" cx="32.5" cy="66.7" rx="3.6" ry="3.3"/>
	<ellipse class="st5" cx="70.6" cy="73.2" rx="3.6" ry="3.3"/>
	<path class="st0" d="M27,50.9c0,0,5.7,0.9,14.9-1.4c9.2-2.3,14.5-10.6,14.5-10.6s6,8,11.5,10.3c5.5,2.3,15.9,2.9,15.9,2.9
		s-0.9,4.9,1.8,8.5c2.7,3.6,3.9,4.7,3.9,4.7s5.8-7,4.1-19.9c-1.8-13-7.6-18.3-13.1-21.6s-16.9-6.9-21.4-6.9c-1.7,0-2.8,2.7-2.8,2.7
		s-1.6-2.7-3.6-2.7c-5,0-12.5,0.5-18.8,3.7s-16.7,9.5-18.3,26.1c-0.9,9.6,3.2,18.6,3.2,18.6s5.8-2.8,6.8-6.8S27,50.9,27,50.9z"/>
</g>
<g id="Layer_2">
</g>
</svg>
