<?xml version="1.0" encoding="utf-8"?>
<!-- Generator: Adobe Illustrator 21.0.2, SVG Export Plug-In . SVG Version: 6.00 Build 0)  -->
<svg version="1.1" id="Layer_1" xmlns="http://www.w3.org/2000/svg" xmlns:xlink="http://www.w3.org/1999/xlink" x="0px" y="0px"
	 viewBox="0 0 180 180" style="enable-background:new 0 0 180 180;" xml:space="preserve">
<style type="text/css">
	.st0{fill:#FFFFFF;stroke:#000000;stroke-width:3;stroke-miterlimit:10;}
	.st1{fill:#BE1E2D;}
	.st2{fill:#0B6936;stroke:#3C2415;stroke-width:2;stroke-miterlimit:10;}
	.st3{fill:#0B6936;}
	.st4{fill:none;stroke:#808285;stroke-width:3;stroke-miterlimit:10;}
</style>
<path class="st0" d="M90.7,177.5h35.8c0,0-18.8-6.6-22.8-9.3c-3.9-2.7-7.7-7.3-7.2-36.7s6.7-58.7,6.7-58.7l47.2-57
	c0,0-50.9,14.5-113.1,0l47.2,57c0,0,6.2,29.4,6.7,58.7s-3.3,34-7.2,36.7c-3.9,2.7-22.8,9.3-22.8,9.3h35.8"/>
<path class="st1" d="M54.8,36.7c0,0,22.6,3.6,42.4,3.2s37.4-5,37.4-5l-31.3,35c0,0-13.7,5.6-18.7,0S54.8,36.7,54.8,36.7z"/>
<line class="st2" x1="108.1" y1="43.6" x2="91.4" y2="72.4"/>
<ellipse transform="matrix(0.5 -0.866 0.866 0.5 21.1078 115.3632)" class="st3" cx="110.5" cy="39.4" rx="13" ry="10.6"/>
<line class="st2" x1="114.7" y1="32.7" x2="132.3" y2="1"/>
<path class="st4" d="M90.7,177.5h35.8c0,0-18.8-6.6-22.8-9.3c-3.9-2.7-7.7-7.3-7.2-36.7s6.7-58.7,6.7-58.7l47.2-57
	c0,0-50.9,14.5-113.1,0l47.2,57c0,0,6.2,29.4,6.7,58.7s-3.3,34-7.2,36.7c-3.9,2.7-22.8,9.3-22.8,9.3h35.8"/>
</svg>
