<?xml version="1.0" encoding="utf-8"?>
<!-- Generator: Adobe Illustrator 21.0.2, SVG Export Plug-In . SVG Version: 6.00 Build 0)  -->
<svg version="1.1" id="Layer_1" xmlns="http://www.w3.org/2000/svg" xmlns:xlink="http://www.w3.org/1999/xlink" x="0px" y="0px"
	 viewBox="0 0 180 180" style="enable-background:new 0 0 180 180;" xml:space="preserve">
<style type="text/css">
	.st0{fill:#E1B59C;}
	.st1{fill:none;stroke:#A97C50;stroke-width:3;stroke-miterlimit:10;}
	.st2{fill:#CE956B;}
</style>
<g>
	<g>
		<path class="st0" d="M90.7,54.8c-49.3,0-89.3,21.6-89.3,48.3s37.3,21.8,86.6,21.8c49.3,0,91.9,4.9,91.9-21.8S140,54.8,90.7,54.8z
			 M48.9,88c-8.8,2.5-17.7-19.9-17.7-19.9l21.9-7.8C56.8,78.7,57.7,85.5,48.9,88z M91.6,88.9c-11.1,0.2-10-32.4-10-32.4H103
			C103,56.5,102.7,88.7,91.6,88.9z M134.2,88.7c-8.8-2.5-7.9-9.3-4.2-27.7l21.9,7.8C151.9,68.8,143,91.3,134.2,88.7z"/>
		<path class="st1" d="M90.7,54.8c-49.3,0-89.3,21.6-89.3,48.3s37.3,21.8,86.6,21.8c49.3,0,91.9,4.9,91.9-21.8S140,54.8,90.7,54.8z
			 M48.9,88c-8.8,2.5-17.7-19.9-17.7-19.9l21.9-7.8C56.8,78.7,57.7,85.5,48.9,88z M91.6,88.9c-11.1,0.2-10-32.4-10-32.4H103
			C103,56.5,102.7,88.7,91.6,88.9z M134.2,88.7c-8.8-2.5-7.9-9.3-4.2-27.7l21.9,7.8C151.9,68.8,143,91.3,134.2,88.7z"/>
	</g>
	<path class="st2" d="M31.2,68.1c0,0,8.9,22.4,17.7,19.9c8.8-2.5,7.9-9.3,4.2-27.7L31.2,68.1z"/>
	<path class="st2" d="M91.6,88.9c11.1-0.2,11.4-32.4,11.4-32.4H81.6C81.6,56.5,80.5,89.1,91.6,88.9z"/>
	<path class="st2" d="M134.2,88.7c8.8,2.5,17.7-19.9,17.7-19.9L130,61C126.3,79.4,125.5,86.2,134.2,88.7z"/>
</g>
</svg>
