<?xml version="1.0" encoding="utf-8"?>
<!-- Generator: Adobe Illustrator 21.0.2, SVG Export Plug-In . SVG Version: 6.00 Build 0)  -->
<svg version="1.1" id="Layer_1" xmlns="http://www.w3.org/2000/svg" xmlns:xlink="http://www.w3.org/1999/xlink" x="0px" y="0px"
	 viewBox="0 0 180 180" style="enable-background:new 0 0 180 180;" xml:space="preserve">
<style type="text/css">
	.st0{fill:#FFFFFF;stroke:#6D6E71;stroke-width:3;stroke-miterlimit:10;}
	.st1{fill:#925D2F;stroke:#6D6E71;stroke-miterlimit:10;}
	.st2{fill:#E6E7E8;stroke:#6D6E71;stroke-width:3;stroke-miterlimit:10;}
	.st3{fill:#E6E7E8;stroke:#6D6E71;stroke-miterlimit:10;}
	.st4{fill:#FFFFFF;stroke:#6D6E71;stroke-miterlimit:10;}
</style>
<path class="st0" d="M112.1,171.5H66.4c-1.8,0-3.3-1.5-3.5-3.6L47.6,28.6h84.6L115.6,168C115.4,170,113.8,171.5,112.1,171.5z"/>
<path class="st1" d="M51,54.1l5.9,59.4c0,0,17.4,3.3,33.3,3.5c16,0.2,31.7-3.8,31.7-3.8l6.4-59.1c0,0-20.6,2.8-38.4,2.8
	S51,54.1,51,54.1z"/>
<path class="st2" d="M89.8,19.4c-25.2,0-45.6,3-45.6,6.6v6.6c0,3.7,20.4,6.6,45.6,6.6s45.6-3,45.6-6.6V26
	C135.4,22.4,115,19.4,89.8,19.4z"/>
<path class="st3" d="M44.2,26c0,0,40.3,13.3,91.3,0"/>
<path class="st0" d="M90,6.5c-20.6,0-34.7,0.2-34.7,1.8l-2.7,16c3.7,2.2,25.5,3.6,36.1,3.9c13.6,0.3,34.3-1.7,38.5-3.9
	c0-5-2.1-10.9-2.1-15.9C125.2,6.8,110.6,6.5,90,6.5z"/>
<path class="st4" d="M55.3,8.3c0,0,34.8,4.8,69.9,0.1"/>
</svg>
