<?xml version="1.0" encoding="utf-8"?>
<!-- Generator: Adobe Illustrator 21.0.2, SVG Export Plug-In . SVG Version: 6.00 Build 0)  -->
<svg version="1.1" id="Layer_1" xmlns="http://www.w3.org/2000/svg" xmlns:xlink="http://www.w3.org/1999/xlink" x="0px" y="0px"
	 viewBox="0 0 180 180" style="enable-background:new 0 0 180 180;" xml:space="preserve">
<style type="text/css">
	.st0{fill:#1B75BC;}
	.st1{fill:none;stroke:#2B3990;stroke-width:3;stroke-miterlimit:10;}
</style>
<g>
	<path class="st0" d="M167.9,94.3l9.1-48.4l-29.8,39.7c-13.9-14.4-57.7-36.7-91.9-36.7c-32.6,0-53,37-53,44.3
		c0,3.8,22.9,26.5,52.7,26.5c32.8,0,74.6-10.2,90.4-19.6l31.7,33.1L167.9,94.3z"/>
	<path class="st1" d="M167.9,94.3l9.1-48.4l-29.8,39.7c-13.9-14.4-57.7-36.7-91.9-36.7c-32.6,0-53,37-53,44.3
		c0,3.8,22.9,26.5,52.7,26.5c32.8,0,74.6-10.2,90.4-19.6l31.7,33.1L167.9,94.3z"/>
</g>
</svg>
