<?xml version="1.0" encoding="utf-8"?>
<!-- Generator: Adobe Illustrator 21.0.2, SVG Export Plug-In . SVG Version: 6.00 Build 0)  -->
<svg version="1.1" id="Layer_1" xmlns="http://www.w3.org/2000/svg" xmlns:xlink="http://www.w3.org/1999/xlink" x="0px" y="0px"
	 viewBox="0 0 180 180" style="enable-background:new 0 0 180 180;" xml:space="preserve">
<style type="text/css">
	.st0{fill:#B8C43F;stroke:#006838;stroke-width:3;stroke-miterlimit:10;}
	.st1{fill:#006838;stroke:#006838;stroke-width:3;stroke-miterlimit:10;}
</style>
<path class="st0" d="M124.7,93.2c-7.8-11.7-9.6-19.2-10.2-27.5c-0.5-7.8,2.2-15.4,1.4-21.2C114.4,34.6,105.7,28,91,28
	c-16.1,0-23.5,11.4-22.5,33.7c0.3,6.4-5.7,22.5-14.8,31.7c-0.1,0.1-0.1,0.2-0.2,0.3c-6.3,8.8-10,19.8-10,31.8
	c0,28.5,21.3,51.7,47.5,51.7c29.7,0,46.4-30.4,45.5-50.5C136.1,117.4,132.2,104.4,124.7,93.2z"/>
<path class="st1" d="M91,26.8c0,0-2-22,20.6-23.8S91,26.8,91,26.8z"/>
</svg>
