<?xml version="1.0" encoding="utf-8"?>
<!-- Generator: Adobe Illustrator 21.0.2, SVG Export Plug-In . SVG Version: 6.00 Build 0)  -->
<svg version="1.1" id="Layer_1" xmlns="http://www.w3.org/2000/svg" xmlns:xlink="http://www.w3.org/1999/xlink" x="0px" y="0px"
	 viewBox="0 0 180 180" style="enable-background:new 0 0 180 180;" xml:space="preserve">
<style type="text/css">
	.st0{fill:#C49A6C;stroke:#8B5E3C;stroke-width:4;stroke-miterlimit:10;}
	.st1{fill:#FFFFFF;}
	.st2{fill:#A7A9AC;}
	.st3{fill:none;stroke:#8B5E3C;stroke-width:4;stroke-miterlimit:10;}
</style>
<polygon class="st0" points="122.4,70.5 91.7,172.5 60.3,67.6 "/>
<polygon class="st0" points="91.7,172.5 74.1,66.1 88.5,64.8 "/>
<line class="st0" x1="107.1" y1="63" x2="91.7" y2="172.5"/>
<g>
	<path class="st1" d="M57.8,53.8c-3-7.4-4.3-15.7-2.8-23.5s6.2-15.2,12.9-19c3.1-1.7,6.5-2.7,9.9-3.5C85,6.2,92.3,5,99.6,6
		c7.3,1,14.4,4.4,19,10.4c3,4,4.7,8.9,6.2,13.7c1.8,5.6,3.4,11.9,1.2,17.4c-0.3,0.8-0.8,1.7-0.5,2.6c0.4,1.1,1.7,1.4,2.8,1.7
		c2.9,0.7,8.3,1.6,9.5,4.4c1.3,2.8-1.3,10.8-3.9,12.2c-3.3,1.7-7.9-4.1-10.7-6.5c0.1,2.5,3,5.2,2.3,7.5c-0.3,1.1-2.9,4.2-4.6,3.8
		c-1.1-0.2-4.1-4.1-4.5-5.1c-0.8,2-0.5,7.4-2.1,8.7c-1.6,1.3-4.3,1.4-5.4-0.4c-0.3-0.5-0.5-1.1-1-1.5c-1.2-0.9-3.9,3.1-5.2,3.6
		c-2.1,0.8-4.9-1.4-6.1-3.3c-1.2-2,0.1-6.2-0.2-8.5c-3.1,2.1-7.3,8.7-10.1,6.2c-2.8-2.6-1.7-6.9-2.3-6.9c-0.8,0-1,2.6-1.5,3.3
		c-1.7,2.2-3.4,4.4-5.6,6s-5.1,2.5-7.7,1.7c-3.6-1.1-5.8-5-6.8-8.8c-0.3-1.2-0.5-2.4-0.2-3.5c0.3-1.1,1.4-2.2,2.5-2
		c0.4,0.9-0.7,1.6-1.6,1.9c-3,1-6.1,1.8-9.3,1.4c-3.1-0.3-9.8,0.7-11.2-2.3c-1.4-3,0-10.8,2.9-12c3.2-1.4,9.8,1.9,12.4,4.2"/>
	<g>
		<path class="st2" d="M60.3,53.2c-5.2-13.4-5-31.6,9-39.6c6.7-3.8,16.4-5.3,24-5.4c7.3-0.1,15,1.7,20.5,6.7
			c5.4,4.9,7.8,12.4,9.6,19.3c1.3,5,1.1,8.4-0.1,13.2c-0.5,2-0.6,3.7,1,5.2c3,2.8,10.7,1.1,11.2,6.1c0.2,2.1-1.4,7.3-4.1,7
			c-2-0.2-5.1-4.4-6.6-5.8c-1.9-1.8-4.6,0-4.2,2.4c0.4,2.5,3.1,5,1.5,7.2c-1.5,2.1-2.7-0.9-3.8-2.9c-1.1-1.9-4-1.4-4.6,0.6
			c-0.6,1.9,0,8-3.4,6.9c-1.7-0.6-1.5-2.4-3.9-2c-2.1,0.4-2.9,2.8-4.6,3.4c-4.8,1.8-3.2-7.2-3.2-9.2c-0.1-1.7-2.2-3.4-3.8-2.2
			c-1.2,0.9-5.8,6.4-6.9,6.2c-2-0.4-1.2-5.1-2.4-6.5c-0.7-0.8-2.1-1-3-0.4c-0.9,0.6-1.3,1.2-1.8,2.2c-1,2.1-1.7,3.6-3.4,5.4
			c-2.5,2.5-6.7,4.8-9.7,2c-0.6-0.5-5-7.8-2.4-8.3c-1.1-0.8-2.1-1.6-3.2-2.4c0,0.9-9.2,0.8-10.9,0.7c-2.8-0.1-5.9,0.7-6.6-2.4
			c-0.5-2.1,0.5-6.5,2.8-7.2c2.5-0.7,7,2.4,8.8,3.8c2.5,2,6-1.5,3.5-3.5c-3.6-3-9.9-6.7-14.8-4.9c-4.6,1.7-5.8,8.9-5.2,13.1
			c0.9,5.9,6.6,6,11.5,6.1c4.5,0.1,15.6,0.9,15.9-5.7c0.1-1.7-1.6-2.7-3.2-2.4c-8.9,1.7-2.7,15.2,2.2,18.1c3.8,2.3,8.3,1.5,11.9-0.9
			c2-1.4,3.6-3.2,5.1-5.1c0.4-0.5,1.9-4.2,2-4.2c-1-0.1-2-0.3-3-0.4c-0.5-0.6,0.3,3.9,0.8,4.8c0.9,1.7,2.2,3,4.2,3.3
			c4.4,0.6,7.5-4.7,10.5-7c-1.3-0.7-2.5-1.4-3.8-2.2c0.2,4.8-1.4,8.9,2.8,12.4c3.6,3.1,6.4,2.2,9.7-0.4c1.8-1.5-0.3-0.8,0.8-0.5
			c0.2,0,1.5,1.3,2,1.5c1.7,0.8,3.7,0.7,5.4-0.1c4.2-2,3.2-7,4.3-10.8c-1.5,0.2-3,0.4-4.6,0.6c2,3.7,5.6,8.2,10,5.3
			c1.7-1.1,3.4-3,3.8-5c0.7-3.2-1.8-5.6-2.3-8.5c-1.4,0.8-2.8,1.6-4.2,2.4c3.1,2.8,6.9,8,11.6,7.5c4.5-0.4,6.5-6.3,7.2-10
			c0.9-4.5-0.3-7.8-4.6-9.8c-1.6-0.7-6.3-1.1-7-2.6c-0.6-1.2,0.6-3.3,0.7-4.6c0.2-2,0.2-3.9-0.1-5.9c-1.8-13.7-8.2-27.7-21.8-32.8
			c-7.1-2.6-14.7-2.6-22.1-1.5C78,5,70,6.5,64,11c-13.6,10.1-14.3,28.9-8.6,43.5C56.6,57.5,61.4,56.2,60.3,53.2L60.3,53.2z"/>
	</g>
</g>
<path class="st3" d="M64.7,82.1c0,0,24.4,15.6,54.2,0"/>
<path class="st3" d="M68.7,95.6c0,0,17.2,15.1,47-0.4"/>
<path class="st3" d="M73.9,113c0,0,11.2,12.2,35.2,1.6"/>
<path class="st3" d="M79,130.1c0,0,10.1,7.2,24.7,0"/>
</svg>
