<?xml version="1.0" encoding="utf-8"?>
<!-- Generator: Adobe Illustrator 21.0.2, SVG Export Plug-In . SVG Version: 6.00 Build 0)  -->
<svg version="1.1" id="Layer_1" xmlns="http://www.w3.org/2000/svg" xmlns:xlink="http://www.w3.org/1999/xlink" x="0px" y="0px"
	 viewBox="0 0 180 180" style="enable-background:new 0 0 180 180;" xml:space="preserve">
<style type="text/css">
	.st0{fill:#BF6B31;}
	.st1{fill:none;stroke:#8B5E3C;stroke-width:3;stroke-miterlimit:10;}
</style>
<g>
	<g>
		<path class="st0" d="M99.8,77.7c2-0.2,4.1-0.5,6.2-0.9c-0.2-6.4,1.8-14.8,3.3-22.9c-2.4-1-4.8-1.8-7.2-2.4
			C101.2,60.6,99.5,70.5,99.8,77.7z"/>
		<path class="st1" d="M99.8,77.7c2-0.2,4.1-0.5,6.2-0.9c-0.2-6.4,1.8-14.8,3.3-22.9c-2.4-1-4.8-1.8-7.2-2.4
			C101.2,60.6,99.5,70.5,99.8,77.7z"/>
	</g>
	<g>
		<path class="st0" d="M99.9,78.4c0.3,5.2,2.8,13.5,4.9,23.4c2.9-0.6,5.7-1.3,8.6-2.3c-3.3-8.9-6.8-16.4-7.3-21.1
			c0-0.5-0.1-1-0.1-1.5c-2.1,0.4-4.2,0.7-6.2,0.9C99.8,77.9,99.8,78.2,99.9,78.4z"/>
		<path class="st1" d="M99.9,78.4c0.3,5.2,2.8,13.5,4.9,23.4c2.9-0.6,5.7-1.3,8.6-2.3c-3.3-8.9-6.8-16.4-7.3-21.1
			c0-0.5-0.1-1-0.1-1.5c-2.1,0.4-4.2,0.7-6.2,0.9C99.8,77.9,99.8,78.2,99.9,78.4z"/>
	</g>
	<g>
		<path class="st0" d="M94.3,127.6c4.6,0,9.1-0.1,13.6-0.5c0-8.9-1.5-17.6-3.1-25.4c-3.8,0.7-7.7,1.1-11.4,1.2
			C93.9,110.5,94.3,118.9,94.3,127.6z"/>
		<path class="st1" d="M94.3,127.6c4.6,0,9.1-0.1,13.6-0.5c0-8.9-1.5-17.6-3.1-25.4c-3.8,0.7-7.7,1.1-11.4,1.2
			C93.9,110.5,94.3,118.9,94.3,127.6z"/>
	</g>
	<g>
		<path class="st0" d="M99.8,77.7c-2.7,0.3-5.3,0.5-7.8,0.6c0,0.6,0,1.3,0,1.8c0.1,5.1,0.8,13.2,1.4,22.9c3.7-0.1,7.5-0.4,11.4-1.2
			c-2.1-9.9-4.6-18.2-4.9-23.4C99.8,78.2,99.8,77.9,99.8,77.7z"/>
		<path class="st1" d="M99.8,77.7c-2.7,0.3-5.3,0.5-7.8,0.6c0,0.6,0,1.3,0,1.8c0.1,5.1,0.8,13.2,1.4,22.9c3.7-0.1,7.5-0.4,11.4-1.2
			c-2.1-9.9-4.6-18.2-4.9-23.4C99.8,78.2,99.8,77.9,99.8,77.7z"/>
	</g>
	<g>
		<path class="st0" d="M102.6,37.2c0.4,4,0.1,9-0.5,14.3c2.4,0.6,4.8,1.4,7.2,2.4c1.2-6.4,2.1-12.6,1.3-17.4h-8.1
			C102.5,36.7,102.6,36.9,102.6,37.2z"/>
		<path class="st1" d="M102.6,37.2c0.4,4,0.1,9-0.5,14.3c2.4,0.6,4.8,1.4,7.2,2.4c1.2-6.4,2.1-12.6,1.3-17.4h-8.1
			C102.5,36.7,102.6,36.9,102.6,37.2z"/>
	</g>
	<g>
		<path class="st0" d="M92.7,36.4h9.8c-0.6-5.5-1.5-10.1-2.5-14c-2.9-0.9-5.6-1.5-8.3-1.6C92.1,24.9,92.5,30.1,92.7,36.4z"/>
		<path class="st1" d="M92.7,36.4h9.8c-0.6-5.5-1.5-10.1-2.5-14c-2.9-0.9-5.6-1.5-8.3-1.6C92.1,24.9,92.5,30.1,92.7,36.4z"/>
	</g>
	<g>
		<path class="st0" d="M85.9,36.4c0.1-6,0.4-11.2,0.9-15.5c-2.5,0.2-4.9,0.8-7.2,1.5c-1.2,4.1-2,8.8-2,14.1H85.9z"/>
		<path class="st1" d="M85.9,36.4c0.1-6,0.4-11.2,0.9-15.5c-2.5,0.2-4.9,0.8-7.2,1.5c-1.2,4.1-2,8.8-2,14.1H85.9z"/>
	</g>
	<g>
		<path class="st0" d="M79.7,22.4c-3.4,1.1-6.4,2.5-9,4.1c-0.9,3.1-1.4,6.4-1.4,10h8.4C77.7,31.2,78.5,26.5,79.7,22.4z"/>
		<path class="st1" d="M79.7,22.4c-3.4,1.1-6.4,2.5-9,4.1c-0.9,3.1-1.4,6.4-1.4,10h8.4C77.7,31.2,78.5,26.5,79.7,22.4z"/>
	</g>
	<g>
		<path class="st0" d="M85.3,102.7c-0.5,8.2-1,17-1,24.6c3.3,0.2,6.6,0.3,10,0.3c0-8.7-0.4-17.2-0.9-24.7
			C90.6,103,87.9,102.9,85.3,102.7z"/>
		<path class="st1" d="M85.3,102.7c-0.5,8.2-1,17-1,24.6c3.3,0.2,6.6,0.3,10,0.3c0-8.7-0.4-17.2-0.9-24.7
			C90.6,103,87.9,102.9,85.3,102.7z"/>
	</g>
	<g>
		<path class="st0" d="M89.3,6.2c0,0,1.4,3.3,2.5,14.6c2.7,0.2,5.4,0.7,8.3,1.6C96,7.4,89.9,3.2,89.9,3.2s-6.8,7-10.2,19.1
			c2.2-0.7,4.6-1.2,7.2-1.5C87.8,11.5,89.3,6.2,89.3,6.2z"/>
		<path class="st1" d="M89.3,6.2c0,0,1.4,3.3,2.5,14.6c2.7,0.2,5.4,0.7,8.3,1.6C96,7.4,89.9,3.2,89.9,3.2s-6.8,7-10.2,19.1
			c2.2-0.7,4.6-1.2,7.2-1.5C87.8,11.5,89.3,6.2,89.3,6.2z"/>
	</g>
	<g>
		<path class="st0" d="M110.6,36.4c-0.6-3.7-1.5-7.1-2.4-10.1c-2.8-1.7-5.5-3-8.2-3.9c1,3.9,1.9,8.5,2.5,14H110.6z"/>
		<path class="st1" d="M110.6,36.4c-0.6-3.7-1.5-7.1-2.4-10.1c-2.8-1.7-5.5-3-8.2-3.9c1,3.9,1.9,8.5,2.5,14H110.6z"/>
	</g>
	<g>
		<path class="st0" d="M85.9,39.6c0-1.1,0-2.1,0-3.1h-8.2c0,0.2,0,0.5,0,0.7c0.1,4.8,0.3,9,0.6,12.8c2.4-0.3,5-0.5,7.7-0.5
			C85.9,46.4,85.9,43.2,85.9,39.6z"/>
		<path class="st1" d="M85.9,39.6c0-1.1,0-2.1,0-3.1h-8.2c0,0.2,0,0.5,0,0.7c0.1,4.8,0.3,9,0.6,12.8c2.4-0.3,5-0.5,7.7-0.5
			C85.9,46.4,85.9,43.2,85.9,39.6z"/>
	</g>
	<g>
		<path class="st0" d="M86.7,78.3c0,0.6,0,1.2,0,1.8c-0.1,5.1-0.8,13.5-1.3,22.6c2.6,0.2,5.3,0.3,8.1,0.3
			c-0.6-9.7-1.3-17.8-1.4-22.9c0-0.6,0-1.2,0-1.8C90.2,78.3,88.4,78.3,86.7,78.3z"/>
		<path class="st1" d="M86.7,78.3c0,0.6,0,1.2,0,1.8c-0.1,5.1-0.8,13.5-1.3,22.6c2.6,0.2,5.3,0.3,8.1,0.3
			c-0.6-9.7-1.3-17.8-1.4-22.9c0-0.6,0-1.2,0-1.8C90.2,78.3,88.4,78.3,86.7,78.3z"/>
	</g>
	<g>
		<path class="st0" d="M92,78.2c2.5-0.1,5.1-0.3,7.8-0.6c-0.3-7.2,1.3-17.1,2.3-26.2c-3.2-0.8-6.3-1.4-9.3-1.7
			C92.6,59.2,92,70.2,92,78.2z"/>
		<path class="st1" d="M92,78.2c2.5-0.1,5.1-0.3,7.8-0.6c-0.3-7.2,1.3-17.1,2.3-26.2c-3.2-0.8-6.3-1.4-9.3-1.7
			C92.6,59.2,92,70.2,92,78.2z"/>
	</g>
	<g>
		<path class="st0" d="M86,49.5c0.2,13.2,0.8,21.2,0.7,28.8c1.7,0,3.5,0,5.3,0c0-8,0.5-19,0.7-28.5C90.4,49.5,88.2,49.4,86,49.5z"/>
		<path class="st1" d="M86,49.5c0.2,13.2,0.8,21.2,0.7,28.8c1.7,0,3.5,0,5.3,0c0-8,0.5-19,0.7-28.5C90.4,49.5,88.2,49.4,86,49.5z"/>
	</g>
	<g>
		<path class="st0" d="M91.7,20.9c-1.7-0.1-3.3-0.1-4.9,0.1c-0.5,4.4-0.8,9.6-0.9,15.5h6.8C92.5,30.1,92.1,24.9,91.7,20.9z"/>
		<path class="st1" d="M91.7,20.9c-1.7-0.1-3.3-0.1-4.9,0.1c-0.5,4.4-0.8,9.6-0.9,15.5h6.8C92.5,30.1,92.1,24.9,91.7,20.9z"/>
	</g>
	<g>
		<path class="st0" d="M91.7,20.9C90.7,9.5,89.3,6.2,89.3,6.2s-1.5,5.3-2.5,14.7C88.4,20.8,90,20.7,91.7,20.9z"/>
		<path class="st1" d="M91.7,20.9C90.7,9.5,89.3,6.2,89.3,6.2s-1.5,5.3-2.5,14.7C88.4,20.8,90,20.7,91.7,20.9z"/>
	</g>
	<g>
		<path class="st0" d="M86,49.5c-2.8,0-5.4,0.2-7.7,0.5c1,12.6,2.7,20.3,2.3,28c1.9,0.2,4,0.3,6.1,0.3C86.7,70.7,86.2,62.6,86,49.5z
			"/>
		<path class="st1" d="M86,49.5c-2.8,0-5.4,0.2-7.7,0.5c1,12.6,2.7,20.3,2.3,28c1.9,0.2,4,0.3,6.1,0.3C86.7,70.7,86.2,62.6,86,49.5z
			"/>
	</g>
	<g>
		<path class="st0" d="M75.7,101.4c-1.9,8.3-3.7,17.2-3.6,24.9c3.8,0.4,7.9,0.8,12.2,1c0-7.6,0.5-16.4,1-24.6
			C81.9,102.4,78.7,101.9,75.7,101.4z"/>
		<path class="st1" d="M75.7,101.4c-1.9,8.3-3.7,17.2-3.6,24.9c3.8,0.4,7.9,0.8,12.2,1c0-7.6,0.5-16.4,1-24.6
			C81.9,102.4,78.7,101.9,75.7,101.4z"/>
	</g>
	<g>
		<path class="st0" d="M92.8,49.8c3,0.3,6.1,0.8,9.3,1.7c0.6-5.3,0.9-10.3,0.5-14.3c0-0.2-0.1-0.5-0.1-0.7h-9.8c0,1,0.1,2,0.1,3.1
			C92.9,42.5,92.9,46,92.8,49.8z"/>
		<path class="st1" d="M92.8,49.8c3,0.3,6.1,0.8,9.3,1.7c0.6-5.3,0.9-10.3,0.5-14.3c0-0.2-0.1-0.5-0.1-0.7h-9.8c0,1,0.1,2,0.1,3.1
			C92.9,42.5,92.9,46,92.8,49.8z"/>
	</g>
	<g>
		<path class="st0" d="M86.7,80.1c0-0.6,0-1.2,0-1.8c-2.2-0.1-4.2-0.2-6.1-0.3c0,0.2,0,0.3,0,0.5c-0.4,5.2-2.7,13.7-4.8,23
			c3,0.6,6.2,1,9.6,1.3C85.9,93.6,86.6,85.2,86.7,80.1z"/>
		<path class="st1" d="M86.7,80.1c0-0.6,0-1.2,0-1.8c-2.2-0.1-4.2-0.2-6.1-0.3c0,0.2,0,0.3,0,0.5c-0.4,5.2-2.7,13.7-4.8,23
			c3,0.6,6.2,1,9.6,1.3C85.9,93.6,86.6,85.2,86.7,80.1z"/>
	</g>
	<g>
		<path class="st0" d="M86,49.5c2.2,0,4.4,0.1,6.8,0.3c0.1-3.7,0.1-7.3,0-10.2c0-1.1-0.1-2.1-0.1-3.1h-6.8c0,1,0,2,0,3.1
			C85.9,43.2,85.9,46.4,86,49.5z"/>
		<path class="st1" d="M86,49.5c2.2,0,4.4,0.1,6.8,0.3c0.1-3.7,0.1-7.3,0-10.2c0-1.1-0.1-2.1-0.1-3.1h-6.8c0,1,0,2,0,3.1
			C85.9,43.2,85.9,46.4,86,49.5z"/>
	</g>
	<g>
		<path class="st0" d="M77.7,37.2c0-0.3,0-0.5,0-0.7h-8.4c0.1,5.7,0.6,10.6,1.2,14.9c2.2-0.5,4.8-1,7.7-1.4
			C78,46.2,77.7,42,77.7,37.2z"/>
		<path class="st1" d="M77.7,37.2c0-0.3,0-0.5,0-0.7h-8.4c0.1,5.7,0.6,10.6,1.2,14.9c2.2-0.5,4.8-1,7.7-1.4
			C78,46.2,77.7,42,77.7,37.2z"/>
	</g>
	<g>
		<path class="st0" d="M107.9,127.4c0,6.4-1.7,18.5-4.9,29.2c3.3-0.7,6.8-1.7,10.3-3.1c4.1-9.7,6.2-19.8,6.2-25.4
			c0-0.9-0.1-1.7-0.1-2.6c-3.7,0.8-7.5,1.3-11.5,1.6C107.9,127.2,107.9,127.3,107.9,127.4z"/>
		<path class="st1" d="M107.9,127.4c0,6.4-1.7,18.5-4.9,29.2c3.3-0.7,6.8-1.7,10.3-3.1c4.1-9.7,6.2-19.8,6.2-25.4
			c0-0.9-0.1-1.7-0.1-2.6c-3.7,0.8-7.5,1.3-11.5,1.6C107.9,127.2,107.9,127.3,107.9,127.4z"/>
	</g>
	<g>
		<path class="st0" d="M70.5,51.4c-3.9,0.9-6.4,1.9-7.1,2.2c1.1,8.4,2.1,17.6,1.6,21.5c0,0,3.4,1.1,9.2,2
			C74.6,70,72.1,62.7,70.5,51.4z"/>
		<path class="st1" d="M70.5,51.4c-3.9,0.9-6.4,1.9-7.1,2.2c1.1,8.4,2.1,17.6,1.6,21.5c0,0,3.4,1.1,9.2,2
			C74.6,70,72.1,62.7,70.5,51.4z"/>
	</g>
	<g>
		<path class="st0" d="M70.7,26.5c2.6-1.6,5.6-3,9-4.1C83.1,10.3,89.9,3.2,89.9,3.2S96,7.4,100,22.5c2.7,0.9,5.4,2.1,8.2,3.9
			C101.9,7,89.5,2,89.5,2S75.2,11.1,70.7,26.5z"/>
		<path class="st1" d="M70.7,26.5c2.6-1.6,5.6-3,9-4.1C83.1,10.3,89.9,3.2,89.9,3.2S96,7.4,100,22.5c2.7,0.9,5.4,2.1,8.2,3.9
			C101.9,7,89.5,2,89.5,2S75.2,11.1,70.7,26.5z"/>
	</g>
	<g>
		<path class="st0" d="M66.9,99.3c-5.3-1.5-8.5-2.9-8.5-2.9S61.7,97.8,66.9,99.3c3.3-8.5,6.6-16.2,7.1-21c0-0.4,0.1-0.8,0.1-1.2
			c-5.8-0.9-9.2-2-9.2-2c-0.9,7.3-7.3,23.4-8.7,26.7c0,0,0,0,0,0c-2.6,6.4-4.3,13.7-4.7,21.4c0.5,0.1,3.6,0.7,8.4,1.4
			C60.6,116.7,63.7,107.6,66.9,99.3z"/>
		<path class="st1" d="M66.9,99.3c-5.3-1.5-8.5-2.9-8.5-2.9S61.7,97.8,66.9,99.3c3.3-8.5,6.6-16.2,7.1-21c0-0.4,0.1-0.8,0.1-1.2
			c-5.8-0.9-9.2-2-9.2-2c-0.9,7.3-7.3,23.4-8.7,26.7c0,0,0,0,0,0c-2.6,6.4-4.3,13.7-4.7,21.4c0.5,0.1,3.6,0.7,8.4,1.4
			C60.6,116.7,63.7,107.6,66.9,99.3z"/>
	</g>
	<g>
		<path class="st0" d="M70.7,26.5c-5.8,3.5-9.2,7.3-9.3,7.4c-0.1,0.9-0.1,1.7-0.1,2.6h8C69.2,32.9,69.8,29.5,70.7,26.5z"/>
		<path class="st1" d="M70.7,26.5c-5.8,3.5-9.2,7.3-9.3,7.4c-0.1,0.9-0.1,1.7-0.1,2.6h8C69.2,32.9,69.8,29.5,70.7,26.5z"/>
	</g>
	<g>
		<path class="st0" d="M89.5,2C74.9,2,62.9,15.9,61.4,33.8c0,0,3.5-3.8,9.3-7.4C75.2,11.1,89.5,2,89.5,2z"/>
		<path class="st1" d="M89.5,2C74.9,2,62.9,15.9,61.4,33.8c0,0,3.5-3.8,9.3-7.4C75.2,11.1,89.5,2,89.5,2z"/>
	</g>
	<g>
		<path class="st0" d="M69.3,36.4h-8c0,0.4,0,0.8,0,1.2c0,0.7,1.1,7.9,2.2,15.9c0.7-0.3,3.3-1.3,7.1-2.2
			C69.9,47,69.4,42.1,69.3,36.4z"/>
		<path class="st1" d="M69.3,36.4h-8c0,0.4,0,0.8,0,1.2c0,0.7,1.1,7.9,2.2,15.9c0.7-0.3,3.3-1.3,7.1-2.2
			C69.9,47,69.4,42.1,69.3,36.4z"/>
	</g>
	<g>
		<path class="st0" d="M60,128c0-1.1,0-2.2,0-3.3c-4.8-0.7-7.9-1.3-8.4-1.4c-0.1,1.2-0.1,2.5-0.1,3.7c0,6.8,1,13.2,2.7,19.2
			c0.1,0.1,3.9,3,10.4,5.9C61.6,143.7,60.3,135.1,60,128z"/>
		<path class="st1" d="M60,128c0-1.1,0-2.2,0-3.3c-4.8-0.7-7.9-1.3-8.4-1.4c-0.1,1.2-0.1,2.5-0.1,3.7c0,6.8,1,13.2,2.7,19.2
			c0.1,0.1,3.9,3,10.4,5.9C61.6,143.7,60.3,135.1,60,128z"/>
	</g>
	<g>
		<path class="st0" d="M127.4,123.2c-2.5,0.9-5.2,1.7-8,2.3c0,0.9,0.1,1.7,0.1,2.6c0,5.7-2.1,15.7-6.2,25.4c3.6-1.5,7.3-3.3,11-5.6
			c2.1-6.4,3.2-13.4,3.2-20.8C127.5,125.7,127.5,124.5,127.4,123.2z"/>
		<path class="st1" d="M127.4,123.2c-2.5,0.9-5.2,1.7-8,2.3c0,0.9,0.1,1.7,0.1,2.6c0,5.7-2.1,15.7-6.2,25.4c3.6-1.5,7.3-3.3,11-5.6
			c2.1-6.4,3.2-13.4,3.2-20.8C127.5,125.7,127.5,124.5,127.4,123.2z"/>
	</g>
	<g>
		<path class="st0" d="M89.5,178.9c15.5,0,28.9-12.8,34.8-31c-3.7,2.4-7.4,4.2-11,5.6C108.3,165.3,100.4,176.6,89.5,178.9z"/>
		<path class="st1" d="M89.5,178.9c15.5,0,28.9-12.8,34.8-31c-3.7,2.4-7.4,4.2-11,5.6C108.3,165.3,100.4,176.6,89.5,178.9z"/>
	</g>
	<g>
		<path class="st0" d="M113.3,153.5c-3.5,1.4-6.9,2.4-10.3,3.1c-3,10-7.4,18.9-13.2,20.8c5.7-2,10.1-10.8,13.2-20.8
			c-3.5,0.7-6.9,1.1-10.2,1.2c-0.8,9.5-2,17.7-3.6,19.6c1.6-1.9,2.8-10.2,3.6-19.6c-2.5,0.1-5,0-7.3-0.2c0.7,8.5,1.8,16,3.5,19.8
			c-1.7-3.8-2.8-11.3-3.5-19.8c-3.4-0.3-6.5-0.9-9.4-1.6c2.6,9.2,6.7,17.4,12.9,21.5c-6.2-4.1-10.3-12.3-12.9-21.5
			c-4.4-1.1-8.3-2.5-11.5-4c4.1,11.3,11.3,21.9,23.4,26.8c0.5,0,1,0.1,1.5,0.1C100.4,176.6,108.3,165.3,113.3,153.5z"/>
		<path class="st1" d="M113.3,153.5c-3.5,1.4-6.9,2.4-10.3,3.1c-3,10-7.4,18.9-13.2,20.8c5.7-2,10.1-10.8,13.2-20.8
			c-3.5,0.7-6.9,1.1-10.2,1.2c-0.8,9.5-2,17.7-3.6,19.6c1.6-1.9,2.8-10.2,3.6-19.6c-2.5,0.1-5,0-7.3-0.2c0.7,8.5,1.8,16,3.5,19.8
			c-1.7-3.8-2.8-11.3-3.5-19.8c-3.4-0.3-6.5-0.9-9.4-1.6c2.6,9.2,6.7,17.4,12.9,21.5c-6.2-4.1-10.3-12.3-12.9-21.5
			c-4.4-1.1-8.3-2.5-11.5-4c4.1,11.3,11.3,21.9,23.4,26.8c0.5,0,1,0.1,1.5,0.1C100.4,176.6,108.3,165.3,113.3,153.5z"/>
	</g>
	<g>
		<path class="st0" d="M78.3,50c-2.9,0.4-5.5,0.9-7.7,1.4c1.6,11.3,4.1,18.6,3.6,25.8c1.9,0.3,4,0.6,6.4,0.8
			C81,70.3,79.2,62.5,78.3,50z"/>
		<path class="st1" d="M78.3,50c-2.9,0.4-5.5,0.9-7.7,1.4c1.6,11.3,4.1,18.6,3.6,25.8c1.9,0.3,4,0.6,6.4,0.8
			C81,70.3,79.2,62.5,78.3,50z"/>
	</g>
	<g>
		<path class="st0" d="M64.6,152c-6.5-2.9-10.3-5.8-10.4-5.9c5.4,18.6,18.4,31.8,33.8,32.6C76,173.9,68.7,163.3,64.6,152z"/>
		<path class="st1" d="M64.6,152c-6.5-2.9-10.3-5.8-10.4-5.9c5.4,18.6,18.4,31.8,33.8,32.6C76,173.9,68.7,163.3,64.6,152z"/>
	</g>
	<g>
		<path class="st0" d="M84.3,127.3c-4.3-0.2-8.4-0.6-12.2-1c0,0.4,0,0.8,0,1.1c0.2,8.3,1.3,19,4,28.6c2.9,0.7,6.1,1.3,9.4,1.6
			c-0.8-9.7-1.2-20.8-1.2-29.4C84.3,127.9,84.3,127.6,84.3,127.3z"/>
		<path class="st1" d="M84.3,127.3c-4.3-0.2-8.4-0.6-12.2-1c0,0.4,0,0.8,0,1.1c0.2,8.3,1.3,19,4,28.6c2.9,0.7,6.1,1.3,9.4,1.6
			c-0.8-9.7-1.2-20.8-1.2-29.4C84.3,127.9,84.3,127.6,84.3,127.3z"/>
	</g>
	<g>
		<path class="st0" d="M72.1,126.3c-4.6-0.5-8.7-1.1-12-1.6c-0.1,1.1-0.1,2.3,0,3.3c0.3,7,1.6,15.7,4.6,24c3.2,1.4,7.1,2.9,11.5,4
			c-2.7-9.6-3.8-20.3-4-28.6C72.1,127,72.1,126.6,72.1,126.3z"/>
		<path class="st1" d="M72.1,126.3c-4.6-0.5-8.7-1.1-12-1.6c-0.1,1.1-0.1,2.3,0,3.3c0.3,7,1.6,15.7,4.6,24c3.2,1.4,7.1,2.9,11.5,4
			c-2.7-9.6-3.8-20.3-4-28.6C72.1,127,72.1,126.6,72.1,126.3z"/>
	</g>
	<g>
		<path class="st0" d="M80.6,78.4c0-0.2,0-0.3,0-0.5c-2.4-0.2-4.5-0.5-6.4-0.8c0,0.4,0,0.8-0.1,1.2c-0.5,4.8-3.9,12.5-7.1,21
			c2.5,0.7,5.5,1.5,8.8,2.1C77.9,92.1,80.2,83.6,80.6,78.4z"/>
		<path class="st1" d="M80.6,78.4c0-0.2,0-0.3,0-0.5c-2.4-0.2-4.5-0.5-6.4-0.8c0,0.4,0,0.8-0.1,1.2c-0.5,4.8-3.9,12.5-7.1,21
			c2.5,0.7,5.5,1.5,8.8,2.1C77.9,92.1,80.2,83.6,80.6,78.4z"/>
	</g>
	<g>
		<path class="st0" d="M75.7,101.4c-3.3-0.6-6.3-1.4-8.8-2.1c-3.2,8.3-6.4,17.4-6.9,25.4c3.3,0.5,7.4,1.1,12,1.6
			C72.1,118.6,73.8,109.7,75.7,101.4z"/>
		<path class="st1" d="M75.7,101.4c-3.3-0.6-6.3-1.4-8.8-2.1c-3.2,8.3-6.4,17.4-6.9,25.4c3.3,0.5,7.4,1.1,12,1.6
			C72.1,118.6,73.8,109.7,75.7,101.4z"/>
	</g>
	<g>
		<path class="st0" d="M94.3,127.6c-3.4,0-6.7-0.2-10-0.3c0,0.3,0,0.7,0,1c0.1,8.5,0.4,19.6,1.2,29.4c2.4,0.2,4.8,0.3,7.3,0.2
			c1-10.8,1.4-23.1,1.4-29.6C94.3,128,94.3,127.8,94.3,127.6z"/>
		<path class="st1" d="M94.3,127.6c-3.4,0-6.7-0.2-10-0.3c0,0.3,0,0.7,0,1c0.1,8.5,0.4,19.6,1.2,29.4c2.4,0.2,4.8,0.3,7.3,0.2
			c1-10.8,1.4-23.1,1.4-29.6C94.3,128,94.3,127.8,94.3,127.6z"/>
	</g>
	<g>
		<path class="st0" d="M107.9,127.1c-4.5,0.4-9.1,0.5-13.6,0.5c0,0.2,0,0.4,0,0.6c0,6.5-0.5,18.8-1.4,29.6c3.3-0.1,6.7-0.5,10.2-1.2
			c3.2-10.7,4.9-22.8,4.9-29.2C107.9,127.3,107.9,127.2,107.9,127.1z"/>
		<path class="st1" d="M107.9,127.1c-4.5,0.4-9.1,0.5-13.6,0.5c0,0.2,0,0.4,0,0.6c0,6.5-0.5,18.8-1.4,29.6c3.3-0.1,6.7-0.5,10.2-1.2
			c3.2-10.7,4.9-22.8,4.9-29.2C107.9,127.3,107.9,127.2,107.9,127.1z"/>
	</g>
	<g>
		<path class="st0" d="M110.6,36.4h7.1c0-0.9-0.1-1.8-0.1-2.6c-3.2-3.1-6.4-5.6-9.5-7.5C109.2,29.4,110,32.7,110.6,36.4z"/>
		<path class="st1" d="M110.6,36.4h7.1c0-0.9-0.1-1.8-0.1-2.6c-3.2-3.1-6.4-5.6-9.5-7.5C109.2,29.4,110,32.7,110.6,36.4z"/>
	</g>
	<g>
		<path class="st0" d="M108.2,26.4c3.1,1.9,6.2,4.3,9.5,7.5C116.1,15.9,104.1,2,89.5,2C89.5,2,101.9,7,108.2,26.4z"/>
		<path class="st1" d="M108.2,26.4c3.1,1.9,6.2,4.3,9.5,7.5C116.1,15.9,104.1,2,89.5,2C89.5,2,101.9,7,108.2,26.4z"/>
	</g>
	<g>
		<path class="st0" d="M109.3,53.9c1.9,0.8,3.8,1.7,5.7,2.7c1.1-6,2.4-12.2,2.6-14.9c0,0,0,0,0,0c0,0,0.2-2.7,0.2-4
			c0-0.4,0-0.8,0-1.2h-7.1C111.4,41.2,110.5,47.5,109.3,53.9z"/>
		<path class="st1" d="M109.3,53.9c1.9,0.8,3.8,1.7,5.7,2.7c1.1-6,2.4-12.2,2.6-14.9c0,0,0,0,0,0c0,0,0.2-2.7,0.2-4
			c0-0.4,0-0.8,0-1.2h-7.1C111.4,41.2,110.5,47.5,109.3,53.9z"/>
	</g>
	<g>
		<path class="st0" d="M104.8,101.8c1.7,7.7,3.1,16.4,3.1,25.4c4-0.3,7.8-0.9,11.5-1.6c-0.4-9.3-3.2-18.2-6.1-26.1
			C110.5,100.4,107.7,101.2,104.8,101.8z"/>
		<path class="st1" d="M104.8,101.8c1.7,7.7,3.1,16.4,3.1,25.4c4-0.3,7.8-0.9,11.5-1.6c-0.4-9.3-3.2-18.2-6.1-26.1
			C110.5,100.4,107.7,101.2,104.8,101.8z"/>
	</g>
	<g>
		<path class="st0" d="M106.1,78.3c0.5,4.8,4,12.2,7.3,21.1c2.3-0.8,4.7-1.8,6.9-3c-2.3,1.2-4.6,2.2-6.9,3
			c2.9,7.8,5.6,16.8,6.1,26.1c2.8-0.6,5.5-1.3,8-2.3c-0.4-7.7-2-15-4.7-21.4c0,0-0.6-2.1-1.9-4.1c-0.6-1.2-5.6-12.8-7.3-22.6
			c-2.6,0.7-5.1,1.2-7.5,1.7C106.1,77.3,106.1,77.8,106.1,78.3z"/>
		<path class="st1" d="M106.1,78.3c0.5,4.8,4,12.2,7.3,21.1c2.3-0.8,4.7-1.8,6.9-3c-2.3,1.2-4.6,2.2-6.9,3
			c2.9,7.8,5.6,16.8,6.1,26.1c2.8-0.6,5.5-1.3,8-2.3c-0.4-7.7-2-15-4.7-21.4c0,0-0.6-2.1-1.9-4.1c-0.6-1.2-5.6-12.8-7.3-22.6
			c-2.6,0.7-5.1,1.2-7.5,1.7C106.1,77.3,106.1,77.8,106.1,78.3z"/>
	</g>
	<g>
		<path class="st0" d="M106,76.8c2.5-0.4,5-1,7.5-1.7c-0.3-1.8-0.5-3.4-0.5-5c-0.1-2.5,0.9-8,1.9-13.5c-1.9-1-3.8-1.9-5.7-2.7
			C107.8,62,105.8,70.4,106,76.8z"/>
		<path class="st1" d="M106,76.8c2.5-0.4,5-1,7.5-1.7c-0.3-1.8-0.5-3.4-0.5-5c-0.1-2.5,0.9-8,1.9-13.5c-1.9-1-3.8-1.9-5.7-2.7
			C107.8,62,105.8,70.4,106,76.8z"/>
	</g>
</g>
</svg>
