<?xml version="1.0" encoding="utf-8"?>
<!-- Generator: Adobe Illustrator 21.0.2, SVG Export Plug-In . SVG Version: 6.00 Build 0)  -->
<svg version="1.1" id="Layer_1" xmlns="http://www.w3.org/2000/svg" xmlns:xlink="http://www.w3.org/1999/xlink" x="0px" y="0px"
	 viewBox="0 0 90 90" style="enable-background:new 0 0 90 90;" xml:space="preserve">
<style type="text/css">
	.st0{fill:#ED2924;stroke:#9B1C1F;stroke-miterlimit:10;}
	.st1{fill:#37B34A;}
	.st2{fill:#009345;}
	.st3{fill:#A87C4F;}
	.st4{fill:#754C28;}
</style>
<path class="st0" d="M87.2,54.5c0-16.4-11.1-29.6-31.3-31.9c-6.7-0.8-10.2,4-10.8,4c-0.8,0.1-6.1-5.1-13-3.6
	C12.6,27.2,2.5,38.4,2.5,54.5c0,18.2,19,33,42.3,33S87.2,72.7,87.2,54.5z"/>
<g>
	<path class="st1" d="M42.5,22.2c-3.8-0.2-7.7,0.1-11.5,0.6c-6,0.8-12.3,2.2-16.3,5.6c2.7-1.4,6.1-1.8,9.4-2.1
		c4.9-0.4,9.9-0.5,14.9-0.2c-5.8,3.2-10.2,7.6-12.4,12.5c4.7-3.1,10-5.7,15.2-8.3c0.4,1.3,0.4,2.6,0.6,3.9s0.8,2.6,2.2,3.5
		c0.4-1.6,0.9-3.3,1.3-4.9c0.1-0.4,0.3-0.9,0.8-1.1c0.9-0.4,1.9,0.3,2.5,0.9c3.2,3.1,6.4,6.2,9.6,9.3c1,1,2.1,2,3.6,2.7
		c0.1-1.3,0.3-2.7,0.4-4c0.3-2.5,0.5-5.1-0.7-7.5c-1.2-2.4-4.3-4.4-7.8-4.3c4.5-0.1,9.1-0.7,13.4-1.7c-1.2-1.1-2.5-2.2-4-3.2
		c-1-0.7-2.1-1.3-3.4-1.6c-2.3-0.5-4.8,0.1-7.1,0.7c1.3-0.2,2.4-0.7,3.5-1.3c3.1-1.7,6-3.6,8.6-5.7c-2.6,0.1-5.3,0.2-7.9,0.2
		c-2.1,0.1-4.3,0.1-6,1c-2,0.9-2.9,2.7-3.8,4.3c-2.4-1.2-4.9-2.2-7.5-3.2c-1.3-0.5-3-1-4.3-0.4c1.4,0.4,2.8,0.8,4.3,1.2
		c1.9,0.5,4.1,1.2,4.8,2.6"/>
	<g>
		<path class="st2" d="M42.9,21.6c-9.6-0.3-21.1,0.7-29.1,6.6c-0.9,0.7,0.9,0.7,1.3,0.5c4.4-1.9,9.3-2,14.1-2.2
			c1.9-0.1,3.7-0.1,5.6,0c3.4,0.1,1.7-0.3,0.6,1c-1.4,1.7-3.9,2.9-5.5,4.7c-1.8,2-3.3,4.1-4.5,6.5c-0.3,0.7,1.6,0.3,1.7,0.1
			c4.9-3.1,10.1-5.7,15.2-8.3c-0.6,0-1.2,0-1.8,0c0.7,3,0.5,5.3,2.9,7.5c0.5,0.4,1.9,0.1,2.1-0.6c0.3-1.1,0.6-2.2,0.9-3.3
			c-0.2-1.6,0.4-2.1,1.6-1.3c1.1,0.1,3.9,3.8,4.8,4.7c2.7,2.6,5.2,5.6,8.6,7.5c0.4,0.2,1.9,0,2-0.7c0.4-3.7,1.5-8.2-0.3-11.7
			c-1.7-3.2-5-4.3-8.4-4.5c-0.3,0.4-0.6,0.8-0.9,1.2c4.7-0.2,9.3-0.8,13.9-1.8c0.2,0,1.3-0.5,0.9-0.9c-5.2-4.6-9-5.9-15.7-4.1
			c-1.3,0.3-1,1.3,0.3,1c4.8-1.1,9.1-4.4,12.8-7.4c0.5-0.4,0-0.7-0.4-0.7c-7.2,0.2-15.2-1.2-19.1,6c0.6-0.2,1.3-0.3,1.9-0.5
			c-3.9-1.9-8.3-4.6-12.8-3.6c-0.5,0.1-1.5,0.8-0.5,1.1c2.9,0.8,6.6,1.2,8.8,3.6c0.5,0.5,2.5-0.3,2-0.8c-2.3-2.5-6.3-3-9.4-3.9
			c-0.2,0.4-0.4,0.7-0.5,1.1c3.1-0.7,8.1,2.3,10.8,3.6c0.5,0.2,1.6,0,1.9-0.5c1.2-2.3,2.9-3.7,5.5-4.5c1.3-0.4,6.4-0.9,7.8-0.3
			c2.1,0.8,0.3,1-1.5,2.1c-2.3,1.5-4.6,3.1-7.3,3.7c0.1,0.3,0.2,0.7,0.3,1c5.8-1.5,9.2,0.2,13.4,4c0.3-0.3,0.6-0.6,0.9-0.9
			c-4.2,0.9-8.5,1.4-12.8,1.6c-0.7,0-2.4,1.1-0.9,1.2c9.1,0.5,8.1,8.8,7.4,15.3c0.7-0.2,1.3-0.4,2-0.7c-3.7-2.1-6.6-5.7-9.6-8.6
			c-1.4-1.4-3.1-3.9-5.2-4.3c-4.1-0.8-4.1,3.7-4.9,6.7c0.7-0.2,1.4-0.4,2.1-0.6c-2.3-2.1-2.1-4.5-2.7-7.3c-0.1-0.6-1.5-0.1-1.8,0
			c-5.2,2.6-10.3,5.2-15.2,8.3c0.6,0,1.2,0.1,1.7,0.1c2.7-5.3,6.9-9.1,12-12.1c0.6-0.4,0.5-0.8-0.2-0.9c-8.1-0.3-17.5-0.9-25.1,2.5
			c0.4,0.2,0.9,0.4,1.3,0.5c7.1-5.3,17.9-6,26.5-5.8C42.8,22.8,44.3,21.6,42.9,21.6L42.9,21.6z"/>
	</g>
</g>
<g>
	<path class="st3" d="M47.9,25.2c-0.8-0.8-0.8-2-0.8-3.1c0.1-3.1,0.5-6.2,1.8-9c0.3-0.6,0.6-1.3,1.1-1.8c0.5-0.5,1.2-0.9,1.9-1.2
		c1.5-0.8,3.2-1.6,4.9-1.7c0.2,0,0.4,0,0.6,0.1C57.7,8.6,57.8,8.8,58,9c1,1.3,2,2.5,2.9,3.8c-0.9,0-1.8,0-2.6,0.3
		c-1,0.3-1.9,1-2.7,1.6c-1.1,0.8-2.2,1.7-3.3,2.6c-0.9,0.8-1.8,1.7-2.5,2.7c-1.1,1.7-1.7,3.6-2.2,5.6"/>
	<g>
		<path class="st4" d="M48.9,24.8c-1.7-2.5-0.4-7.6,0.5-10.3c0.9-2.6,3.4-5.1,6.2-5.1c1.7,0,1.5,0.1,2.4,1.3
			c0.6,0.8,1.2,1.6,1.8,2.4c0.5-0.3,1-0.7,1.4-1c-7.2,0.2-13.2,7-14.8,13.6c-0.2,0.7,2,0.4,2.2-0.3c1.2-4.9,5.9-12,11.7-12.1
			c0.3,0,1.9-0.4,1.4-1c-1.3-1.7-2.5-4.5-4.9-4.5c-2.3,0-5,1.3-6.8,2.5C47.8,12,47,15,46.5,17.7c-0.4,2.4-1.1,5.8,0.4,8
			C47.3,26.2,49.4,25.5,48.9,24.8L48.9,24.8z"/>
	</g>
</g>
</svg>
