<?xml version="1.0" encoding="utf-8"?>
<!-- Generator: Adobe Illustrator 21.0.2, SVG Export Plug-In . SVG Version: 6.00 Build 0)  -->
<svg version="1.1" id="Layer_1" xmlns="http://www.w3.org/2000/svg" xmlns:xlink="http://www.w3.org/1999/xlink" x="0px" y="0px"
	 viewBox="0 0 180 180" style="enable-background:new 0 0 180 180;" xml:space="preserve">
<style type="text/css">
	.st0{fill:#F7941D;stroke:#F15A29;stroke-width:3;stroke-miterlimit:10;}
	.st1{fill:#009444;stroke:#006838;stroke-width:3;stroke-miterlimit:10;}
</style>
<path class="st0" d="M86.6,177.1c0,0-14.4-101.6-13-111c0.8-5.7,1.6-11.4,11.7-11.5c9.8-0.1,14.3,4.3,14.3,11.5
	C99.4,73.6,86.6,177.1,86.6,177.1z"/>
<path class="st1" d="M85.3,54.6c0.1-0.8,0.2-1.7,0.3-2.5c0.3-3.1,0.4-6,0.3-8.6c-0.8-27.8-22.2-25.9-21.1-28
	c1.3-2.3,10-6.5,15.8,1.7s6.5,57.5,6.8,28s21.5-43.8,9.3-37.8c-8.2,4-10.4,28.3-11.1,40.3C85.3,52,85.3,54.6,85.3,54.6
	c0.7-6.1,1.4-14.4,1.3-24.2c-0.1-13.7-1.6-27.6-2.3-27.6c-0.5,0,0.8,7.6,1.6,42.2"/>
<path class="st1" d="M86.9,54.6c0,0,1.1-23,12.6-30.2S89.3,33.6,86.9,54.6z"/>
</svg>
