<?xml version="1.0" encoding="utf-8"?>
<!-- Generator: Adobe Illustrator 21.0.2, SVG Export Plug-In . SVG Version: 6.00 Build 0)  -->
<svg version="1.1" xmlns="http://www.w3.org/2000/svg" xmlns:xlink="http://www.w3.org/1999/xlink" x="0px" y="0px"
	 viewBox="0 0 304 432" style="enable-background:new 0 0 304 432;" xml:space="preserve">
<style type="text/css">
	.st0{fill:#A7A9AC;stroke:#000000;stroke-miterlimit:10;}
	.st1{fill:#D1D3D4;stroke:#000000;stroke-miterlimit:10;}
	.st2{fill:#E6E7E8;stroke:#000000;stroke-miterlimit:10;}
	.st3{fill:#FFFFFF;stroke:#000000;stroke-miterlimit:10;}
	.st4{fill:#6D6C6C;stroke:#000000;stroke-miterlimit:10;}
	.st5{fill:#808285;stroke:#000000;stroke-miterlimit:10;}
	.st6{fill:#414042;stroke:#000000;stroke-miterlimit:10;}
</style>
<g id="interiror">
	<polygon class="st0" points="44.9,362.3 30.8,379.3 31.1,38.9 44.9,53.7 	"/>
	<polygon class="st0" points="227.9,362.3 242,379.3 241.7,38.9 227.9,53.7 	"/>
	<polygon class="st1" points="31.1,38.9 44.9,53.7 227.9,53.7 241.7,38.9 	"/>
	<polygon class="st1" points="30.8,379.3 44.9,362.3 227.9,362.3 242,379.3 	"/>
	<rect x="44.9" y="53.7" class="st2" width="183" height="308.5"/>
</g>
<g id="shelves">
	<polygon class="st3" points="227.1,130.2 45.5,130.2 32.5,150.4 240.2,150.4 	"/>
	<polygon class="st3" points="227.1,217.3 45.5,217.3 32.5,237.5 240.2,237.5 	"/>
	<polygon class="st3" points="227.1,288.5 45.5,288.5 32.5,308.7 240.2,308.7 	"/>
</g>
<g id="Layer_1">
	<path class="st1" d="M240.8,26.5H31.9c-4.1,0-7.4,3.3-7.4,7.4v359.7c0,4.1,3.3,7.4,7.4,7.4h208.9c4.1,0,7.4-3.3,7.4-7.4V34
		C248.2,29.9,244.9,26.5,240.8,26.5z M240.4,373.1c0,2.9-2.4,5.3-5.3,5.3H38.1c-2.9,0-5.3-2.4-5.3-5.3v-210c0-2.9,2.4-5.3,5.3-5.3
		h197.1c2.9,0,5.3,2.4,5.3,5.3V373.1z M240.4,144.5c0,3.3-2.6,5.9-5.9,5.9H38.7c-3.3,0-5.9-2.6-5.9-5.9V46c0-3.3,2.6-5.9,5.9-5.9
		h195.8c3.3,0,5.9,2.6,5.9,5.9V144.5z"/>
	<line class="st3" x1="248.2" y1="34" x2="24.4" y2="34"/>
	<line class="st3" x1="24.4" y1="153.8" x2="248.2" y2="153.8"/>
	<rect x="40.9" y="401.1" class="st4" width="11.8" height="4.4"/>
	<rect x="222.2" y="401.1" class="st4" width="11.8" height="4.4"/>
	<rect x="267.3" y="26.5" class="st1" width="11.5" height="123.8"/>
	<rect x="267.3" y="159" class="st1" width="11.5" height="239"/>
	<polygon class="st5" points="267.3,26.5 248.2,34 248.2,153.8 267.3,150.4 	"/>
	<polygon class="st5" points="248.2,384.5 267.3,398 267.3,159 248.2,154.1 	"/>
	<polygon class="st6" points="267.3,150.4 278.8,150.4 260.4,154.1 248.9,154.1 	"/>
	<polygon class="st6" points="259.7,154.1 248.2,154.1 267.3,159 277,158.5 	"/>
</g>
</svg>
